<svg xmlns="http://www.w3.org/2000/svg" width="189" height="38" viewBox="0 0 189 38">
  <g fill="#008FBE" fill-rule="evenodd">
    <path d="M18.2723625.0930612245C19.185075.0930612245 20.0442375.264836735 20.8467.604510204 21.64995.944571429 22.3547625 1.41569388 22.9646812 2.01477551 23.5718437 2.61540816 24.0506437 3.31685714 24.3971437 4.1195102 24.7420687 4.92565306 24.9165 5.77677551 24.9165 6.67559184L24.9165 24.5065102 23.0068125 24.5065102 23.0068125 6.67559184C23.0068125 6.023 22.8808125 5.40957143 22.6323562 4.83646939 22.382325 4.26414286 22.0429125 3.76704082 21.6145125 3.34322449 21.1841437 2.92095918 20.6872312 2.58710204 20.1186562 2.34242857 19.550475 2.0977551 18.9366187 1.97367347 18.2719687 1.97367347 17.6073187 1.97367347 16.9844062 2.0977551 16.4016562 2.34242857 15.8216625 2.58710204 15.3160875 2.92095918 14.8869 3.34322449 14.4573187 3.76704082 14.1190875 4.26414286 13.8686625 4.83646939 13.6209937 5.40995918 13.4953875 6.023 13.4953875 6.67559184L13.4953875 24.5065102 11.5853062 24.5065102 11.5853062 6.67559184C11.5853062 6.023 11.461275 5.40957143 11.21085 4.83646939 10.962 4.26414286 10.6229812 3.76704082 10.1945812 3.34322449 9.7642125 2.92095918 9.2602125 2.58710204 8.67825 2.34242857 8.0978625 2.0977551 7.47534375 1.97367347 6.81069375 1.97367347 6.14604375 1.97367347 5.53021875 2.0977551 4.9620375 2.34242857 4.39543125 2.58710204 3.89694375 2.92095918 3.46696875 3.34322449 3.038175 3.76704082 2.69836875 4.26414286 2.45030625 4.83646939 2.200275 5.40995918 2.07624375 6.023 2.07624375 6.67559184L2.07624375 24.5065102.16576875 24.5065102.16576875 6.67559184C.16576875 5.77677551.338625 4.92565306.685125 4.1195102 1.03123125 3.31685714 1.50885 2.61579592 2.11719375 2.01477551 2.72593125 1.41569388 3.43153125.944571429 4.23556875.604510204 5.03724375.264836735 5.89719375.0930612245 6.81069375.0930612245 8.056125.0930612245 9.17713125.385816327 10.1741062.971326531 11.171475 1.55877551 11.9601562 2.32885714 12.5409375 3.28234694 13.1232937 2.32885714 13.9115812 1.55838776 14.90895.971326531 15.9039562.385816327 17.0269312.0930612245 18.2723625.0930612245M40.5306562 11.2561429C39.8927812 11.8843061 39.1737937 12.3752041 38.3709375 12.7288367 37.5676875 13.0836327 36.6967125 13.2608367 35.7560437 13.2608367 35.0913937 13.2608367 34.4743875 13.3833673 33.9069937 13.6292041 33.3392062 13.8742653 32.8332375 14.2092857 32.3922375 14.631551 31.9484812 15.0553673 31.6019812 15.5447143 31.3531312 16.1046327 31.1038875 16.6622245 30.9794625 17.2686735 30.9794625 17.9216531 30.9794625 18.5777347 31.1038875 19.1896122 31.3531312 19.7627143 31.6019812 20.3362041 31.9484812 20.8329184 32.3922375 21.2559592 32.8332375 21.6793878 33.3388125 22.0124694 33.9069937 22.2583061 34.4739937 22.5045306 35.091 22.6255102 35.7560437 22.6255102 36.4206937 22.6255102 37.0349437 22.5045306 37.6027312 22.2583061 38.170125 22.0124694 38.6686125 21.6793878 39.0985875 21.2559592 39.5269875 20.8329184 39.8730937 20.3358163 40.1369062 19.7627143 40.3995375 19.1896122 40.5306562 18.5777347 40.5306562 17.9216531L40.5306562 11.2561429 40.5306562 11.2561429zM35.75565.0930612245C36.6683625.0930612245 37.5330375.264836735 38.3508562.604510204 39.1667062.944571429 39.8801812 1.41569388 40.4893125 2.01477551 41.0972625 2.61540816 41.575275 3.31685714 41.9229562 4.1195102 42.2678812 4.92565306 42.4411312 5.77677551 42.4411312 6.67559184L42.4411312 17.9216531C42.4411312 18.8243469 42.2678812 19.6746939 41.9229562 20.4777347 41.5756687 21.2834898 41.0972625 21.9849388 40.4893125 22.5859592 39.8801812 23.1838776 39.1667062 23.6553878 38.3508562 23.9950612 37.5330375 24.335898 36.6683625 24.5065102 35.75565 24.5065102 34.840575 24.5065102 33.9755062 24.335898 33.1588687 23.9950612 32.3430187 23.6553878 31.6299375 23.1838776 31.0208062 22.5859592 30.4120687 21.9849388 29.9336625 21.2834898 29.5883437 20.4777347 29.2410562 19.6746939 29.0689875 18.8243469 29.0689875 17.9216531 29.0689875 17.0243878 29.2410562 16.1779184 29.5883437 15.3880612 29.9332687 14.5970408 30.4120687 13.9017959 31.0208062 13.3019388 31.6295437 12.7024694 32.342625 12.2317347 33.1588687 11.8912857 33.9755062 11.550449 34.840575 11.3798367 35.75565 11.3798367 36.4203 11.3798367 37.03455 11.2557551 37.6023375 11.0110816 38.1697312 10.7660204 38.6682187 10.4251837 39.0981937 9.98895918 39.5265937 9.55312245 39.8727 9.05602041 40.1365125 8.49571429 40.3991437 7.93812245 40.5302625 7.32973469 40.5302625 6.67481633 40.5302625 6.02222449 40.39875 5.41616327 40.1365125 4.85663265 39.8727 4.29787755 39.5265937 3.80038776 39.0981937 3.36455102 38.6682187 2.92755102 38.1697312 2.58632653 37.6023375 2.34165306 37.03455 2.09697959 36.4203 1.97289796 35.75565 1.97289796 35.091 1.97289796 34.4739937 2.09697959 33.9066 2.34165306 33.3388125 2.58632653 32.8328437 2.92755102 32.3918437 3.36455102 31.9480875 3.80038776 31.6015875 4.2974898 31.3527375 4.85663265 31.1034937 5.41655102 30.9790687 6.02222449 30.9790687 6.67481633L29.0689875 6.67481633C29.0689875 5.776 29.2410562 4.92487755 29.5883437 4.11873469 29.9332687 3.31608163 30.4120687 2.61502041 31.0208062 2.014 31.6295437 1.41491837 32.342625.943795918 33.1588687.603734694 33.9755062.264836735 34.840575.0930612245 35.75565.0930612245L35.75565.0930612245zM53.2791 2.05626531C52.61445 2.05626531 51.9978375 2.17840816 51.4312313 2.42346939 50.8638375 2.67008163 50.3570813 3.00355102 49.9149 3.42581633 49.4719313 3.8492449 49.1270063 4.33859184 48.8773688 4.89773469 48.6269438 5.45804082 48.5033063 6.06255102 48.5033063 6.71708163L48.5033063 24.5065102 46.5928313 24.5065102 46.5928313 6.71746939C46.5928313 5.81865306 46.7656875 4.96597959 47.1117938 4.16177551 47.4586875 3.35873469 47.9363063 2.66271429 48.54465 2.07720408 49.1529938 1.4897551 49.8672563 1.02793878 50.6835.685163265 51.4989563.345877551 52.3648125.176040816 53.2791.176040816L53.2791 2.05626531 53.2791 2.05626531zM57.4304063 6.67559184C57.4304063 5.77677551 57.6032625 4.92565306 57.9497625 4.1195102 58.2958688 3.31685714 58.7734875 2.61579592 59.3838 2.01477551 59.9909625 1.41569388 60.7044375.944571429 61.5214688.604510204 62.3385.264836735 63.2035688.0930612245 64.1170688.0930612245 65.0297813.0930612245 65.8956375.264836735 66.712275.604510204 67.5289125.944571429 68.233725 1.41569388 68.8302563 2.01477551 69.4248188 2.61540816 69.9028313 3.31685714 70.2627188 4.1195102 70.6237875 4.92565306 70.8037313 5.77677551 70.8037313 6.67559184L68.8515188 6.67559184C68.8515188 6.023 68.725125 5.41693878 68.4774563 4.85740816 68.2286063 4.29865306 67.8895875 3.80116327 67.4596125 3.36532653 67.0308188 2.92832653 66.532725 2.58710204 65.9653313 2.34242857 65.3975438 2.0977551 64.7817188 1.97367347 64.1174625 1.97367347 63.4528125 1.97367347 62.8369875 2.0977551 62.2699875 2.34242857 61.7022 2.58710204 61.1962313 2.92832653 60.7536563 3.36532653 60.311475 3.80116327 59.964975 4.29826531 59.71455 4.85740816 59.4664875 5.41732653 59.3424563 6.023 59.3424563 6.67559184L59.3424563 17.9216531C59.3424563 18.5777347 59.4664875 19.1896122 59.71455 19.7627143 59.964975 20.3362041 60.311475 20.8329184 60.7536563 21.2559592 61.1962313 21.6793878 61.7022 22.0124694 62.2699875 22.2583061 62.8369875 22.5045306 63.4528125 22.6255102 64.1174625 22.6255102 64.7821125 22.6255102 65.3975438 22.5045306 65.9653313 22.2583061 66.5323313 22.0124694 67.0308188 21.6793878 67.4596125 21.2559592 67.8895875 20.8329184 68.229 20.3358163 68.4774563 19.7627143 68.725125 19.1896122 68.8515188 18.5777347 68.8515188 17.9216531L70.8037313 17.9216531C70.8037313 18.8243469 70.6237875 19.6746939 70.2627188 20.4777347 69.9028313 21.2834898 69.4252125 21.9849388 68.8302563 22.5859592 68.233725 23.1838776 67.5289125 23.6553878 66.712275 23.9950612 65.8952438 24.335898 65.0297813 24.5065102 64.1170688 24.5065102 63.2035688 24.5065102 62.3381063 24.335898 61.5214688 23.9950612 60.7044375 23.6553878 59.9909625 23.1838776 59.3838 22.5859592 58.7738813 21.9849388 58.2962625 21.2834898 57.9497625 20.4777347 57.6036563 19.6746939 57.4304063 18.8243469 57.4304063 17.9216531L57.4304063 6.67559184 57.4304063 6.67559184zM86.3753625 6.71746939C86.3753625 6.06293878 86.2509375 5.44989796 86.0024813 4.87795918 85.7528438 4.30446939 85.4067375 3.8077551 84.9629813 3.38626531 84.5208 2.96244898 84.0160125 2.62820408 83.44665 2.38236735 82.8804375 2.13769388 82.2650063 2.01516327 81.6003563 2.01516327 80.9357063 2.01516327 80.3183063 2.13769388 79.7517 2.38236735 79.1839125 2.62820408 78.6866063 2.96244898 78.2578125 3.38626531 77.8278375 3.8077551 77.4888188 4.30485714 77.2399688 4.87795918 76.9899375 5.44989796 76.8655125 6.06293878 76.8655125 6.71746939L76.8655125 17.9646939C76.8655125 18.6172857 76.9899375 19.2252857 77.2399688 19.7836531 77.4888188 20.3431837 77.8278375 20.8329184 78.2578125 21.2559592 78.6866063 21.6793878 79.1839125 22.0190612 79.7517 22.2776939 80.3183063 22.5378776 80.9357063 22.667 81.6003563 22.667 82.2650063 22.667 82.8804375 22.5378776 83.44665 22.2776939 84.0156188 22.0190612 84.5208 21.6797755 84.9629813 21.2559592 85.4063438 20.8329184 85.7528438 20.3431837 86.0024813 19.7836531 86.2509375 19.2256735 86.3753625 18.6172857 86.3753625 17.9646939L86.3753625 6.71746939 86.3753625 6.71746939zM84.1955625.645612245C85.0110187.986836735 85.7244937 1.45679592 86.333625 2.05626531 86.9423625 2.65573469 87.4195875 3.35873469 87.7672687 4.16177551 88.1121937 4.96597959 88.2854437 5.81865306 88.2854437 6.71746939L88.2854437 17.9646939C88.2854437 18.863898 88.1125875 19.7165714 87.7672687 20.5203878 87.4199812 21.3249796 86.9423625 22.0256531 86.333625 22.6251224 85.7248875 23.2249796 85.0110187 23.6964898 84.1955625 24.038102 83.3785312 24.3777755 82.5130687 24.5468367 81.6003562 24.5468367 80.6852812 24.5468367 79.8202125 24.3777755 79.0047562 24.038102 78.187725 23.6968776 77.4809437 23.2249796 76.8863812 22.6251224 76.28985 22.0256531 75.8197125 21.3245918 75.4747875 20.5203878 75.1282875 19.7165714 74.9550375 18.863898 74.9550375 17.9646939L74.9550375 6.71746939C74.9550375 5.81865306 75.1282875 4.96597959 75.4747875 4.16177551 75.8197125 3.35873469 76.28985 2.65612245 76.8863812 2.05626531 77.4809437 1.45679592 78.187725.986836735 79.0047562.645612245 79.8202125.30477551 80.6852812.134163265 81.6003562.134163265 82.5130687.134163265 83.378925.30477551 84.1955625.645612245zM107.468944 2.05626531C106.804687 2.05626531 106.189256 2.17840816 105.621469 2.42346939 105.054862 2.67008163 104.549681 3.00355102 104.105137 3.42581633 103.665319 3.8492449 103.317637 4.33859184 103.067212 4.89773469 102.818362 5.45804082 102.695119 6.06255102 102.695119 6.71708163L102.695119 24.5065102 100.785431 24.5065102 100.785431 6.71746939C100.785431 5.81865306 100.957894 4.96597959 101.304394 4.16177551 101.649319 3.35873469 102.126937 2.66271429 102.736069 2.07720408 103.344412 1.4897551 104.055919 1.02793878 104.875312.685163265 105.690769.345877551 106.557019.176040816 107.468944.176040816L107.468944 2.05626531 107.468944 2.05626531zM123.084675 11.2561429C122.4468 11.8843061 121.728994 12.3752041 120.924169 12.7288367 120.122494 13.0836327 119.250731 13.2608367 118.307306 13.2608367 117.642656 13.2608367 117.026831 13.3833673 116.461406 13.6292041 115.892831 13.8742653 115.386863 14.2092857 114.944681 14.631551 114.501713 15.0553673 114.155606 15.5447143 113.905969 16.1046327 113.656331 16.6622245 113.533875 17.2686735 113.533875 17.9216531 113.533875 18.5777347 113.656725 19.1896122 113.905969 19.7627143 114.155606 20.3362041 114.501713 20.8329184 114.944681 21.2559592 115.386863 21.6793878 115.892438 22.0124694 116.461406 22.2583061 117.027225 22.5045306 117.64305 22.6255102 118.307306 22.6255102 118.972744 22.6255102 119.587388 22.5045306 120.154388 22.2583061 120.722963 22.0124694 121.222238 21.6793878 121.652213 21.2559592 122.079825 20.8329184 122.426719 20.3358163 122.689744 19.7627143 122.952769 19.1896122 123.084675 18.5777347 123.084675 17.9216531L123.084675 11.2561429 123.084675 11.2561429zM118.307306.0930612245C119.221987.0930612245 120.087844.264836735 120.904481.604510204 121.719937.944571429 122.433019 1.41569388 123.043331 2.01477551 123.651281 2.61540816 124.128112 3.31685714 124.474612 4.1195102 124.821112 4.92565306 124.993969 5.77677551 124.993969 6.67559184L124.993969 17.9216531C124.993969 18.8243469 124.821112 19.6746939 124.474612 20.4777347 124.128112 21.2834898 123.651281 21.9849388 123.043331 22.5859592 122.433019 23.1838776 121.720331 23.6553878 120.904481 23.9950612 120.088237 24.335898 119.222381 24.5065102 118.307306 24.5065102 117.394987 24.5065102 116.529525 24.335898 115.712494 23.9950612 114.895856 23.6553878 114.183956 23.1838776 113.572462 22.5859592 112.964906 21.9849388 112.486106 21.2834898 112.141575 20.4777347 111.794681 19.6746939 111.6234 18.8243469 111.6234 17.9216531 111.6234 17.0243878 111.795075 16.1779184 112.141575 15.3880612 112.486106 14.5970408 112.964906 13.9017959 113.572462 13.3019388 114.183956 12.7024694 114.895462 12.2317347 115.712494 11.8912857 116.529525 11.550449 117.394594 11.3798367 118.307306 11.3798367 118.972744 11.3798367 119.587387 11.2557551 120.154387 11.0110816 120.722962 10.7660204 121.222237 10.4251837 121.652212 9.98895918 122.079825 9.55312245 122.426719 9.05602041 122.689744 8.49571429 122.952769 7.93812245 123.084675 7.32973469 123.084675 6.67481633 123.084675 6.02222449 122.952769 5.41616327 122.689744 4.85663265 122.426719 4.29787755 122.079825 3.80038776 121.652212 3.36455102 121.222237 2.92755102 120.723356 2.58632653 120.154387 2.34165306 119.587387 2.09697959 118.972744 1.97289796 118.307306 1.97289796 117.642656 1.97289796 117.026831 2.09697959 116.461406 2.34165306 115.892831 2.58632653 115.386862 2.92755102 114.944681 3.36455102 114.501712 3.80038776 114.155606 4.2974898 113.905969 4.85663265 113.656331 5.41655102 113.533875 6.02222449 113.533875 6.67481633L111.6234 6.67481633C111.6234 5.776 111.795075 4.92487755 112.141575 4.11873469 112.486106 3.31608163 112.964906 2.61502041 113.572462 2.014 114.183956 1.41491837 114.895462.943795918 115.712494.603734694 116.529525.264836735 117.394987.0930612245 118.307306.0930612245L118.307306.0930612245zM147.25305.0930612245C148.165369.0930612245 149.02335.264836735 149.8266.604510204 150.628669.944571429 151.335056 1.41569388 151.943794 2.01477551 152.554894 2.61540816 153.030937 3.31685714 153.377831 4.1195102 153.722362 4.92565306 153.897581 5.77677551 153.897581 6.67559184L153.897581 24.5065102 151.985531 24.5065102 151.985531 6.67559184C151.985531 6.023 151.863469 5.40957143 151.613437 4.83646939 151.365375 4.26414286 151.024781 3.76704082 150.595594 3.34322449 150.1668 2.92095918 149.667131 2.58710204 149.101312 2.34242857 148.532737 2.0977551 147.9177 1.97367347 147.253444 1.97367347 146.589581 1.97367347 145.966275 2.0977551 145.384706 2.34242857 144.802744 2.58710204 144.296775 2.92095918 143.869162 3.34322449 143.437613 3.76704082 143.099775 4.26414286 142.850925 4.83646939 142.600894 5.40995918 142.476863 6.023 142.476863 6.67559184L142.476863 24.5065102 140.567569 24.5065102 140.567569 6.67559184C140.567569 6.023 140.44275 5.40957143 140.193506 4.83646939 139.943869 4.26414286 139.60485 3.76704082 139.175663 3.34322449 138.746869 2.92095918 138.2409 2.58710204 137.660906 2.34242857 137.078944 2.0977551 136.455244 1.97367347 135.790988 1.97367347 135.127125 1.97367347 134.509331 2.0977551 133.942331 2.34242857 133.375725 2.58710204 132.87645 2.92095918 132.446869 3.34322449 132.018469 3.76704082 131.67945 4.26414286 131.430994 4.83646939 131.182931 5.40995918 131.057325 6.023 131.057325 6.67559184L131.057325 24.5065102 129.147244 24.5065102 129.147244 6.67559184C129.147244 5.77677551 129.320494 4.92565306 129.6666 4.1195102 130.0131 3.31685714 130.490719 2.61579592 131.098275 2.01477551 131.7078 1.41569388 132.413794.944571429 133.217438.604510204 134.019113.264836735 134.875913.0930612245 135.790988.0930612245 137.037206.0930612245 138.158606.385816327 139.155581.971326531 140.1498 1.55877551 140.938875 2.32885714 141.520444 3.28234694 142.103194 2.32885714 142.893056 1.55838776 143.889244.971326531 144.884644.385816327 146.006044.0930612245 147.25305.0930612245M169.47 6.71746939C169.47 6.06293878 169.345969 5.44989796 169.095544 4.87795918 168.847087 4.30446939 168.500194 3.8077551 168.057225 3.38626531 167.613862 2.96244898 167.109075 2.62820408 166.541287 2.38236735 165.974681 2.13769388 165.356494 2.01516327 164.693813 2.01516327 164.029163 2.01516327 163.412156 2.13769388 162.845944 2.38236735 162.27855 2.62820408 161.781244 2.96244898 161.349694 3.38626531 160.920506 3.8077551 160.582669 4.30485714 160.333819 4.87795918 160.083788 5.44989796 159.958575 6.06293878 159.958575 6.71746939L159.958575 17.9646939C159.958575 18.6172857 160.083788 19.2252857 160.333819 19.7836531 160.582669 20.3431837 160.920506 20.8329184 161.349694 21.2559592 161.781244 21.6793878 162.278156 22.0190612 162.845944 22.2776939 163.412156 22.5378776 164.029556 22.667 164.693813 22.667 165.356887 22.667 165.974681 22.5378776 166.541287 22.2776939 167.108681 22.0190612 167.613862 21.6797755 168.057225 21.2559592 168.500194 20.8329184 168.847087 20.3431837 169.095544 19.7836531 169.345969 19.2256735 169.47 18.6172857 169.47 17.9646939L169.47 6.71746939 169.47 6.71746939zM164.694206.134163265C165.606919.134163265 166.4712.30477551 167.288231.645612245 168.105263.986836735 168.819131 1.45679592 169.427869 2.05626531 170.037394 2.65573469 170.515013 3.35873469 170.860331 4.16177551 171.2088 4.96597959 171.380081 5.81865306 171.380081 6.71746939L171.380081 17.9646939C171.380081 18.863898 171.208406 19.7165714 170.860331 20.5203878 170.515013 21.3249796 170.037394 22.0256531 169.427869 22.6251224 168.819131 23.2249796 168.105656 23.6964898 167.288231 24.038102 166.4712 24.3777755 165.606919 24.5468367 164.694206 24.5468367 163.780706 24.5468367 162.91485 24.3777755 162.098213 24.038102 161.281575 23.6968776 160.575581 23.2249796 159.981019 22.6251224 159.386456 22.0256531 158.91435 21.3245918 158.568244 20.5203878 158.222531 19.7165714 158.050069 18.863898 158.050069 17.9646939L158.050069 6.71746939C158.050069 5.81865306 158.222531 4.96597959 158.568244 4.16177551 158.91435 3.35873469 159.386456 2.65612245 159.981019 2.05626531 160.575581 1.45679592 161.281575.986836735 162.098213.645612245 162.91485.30477551 163.780313.134163265 164.694206.134163265L164.694206.134163265zM182.175131 13.2608367C181.262813 13.2608367 180.404831 13.0906122 179.601581 12.7497755 178.798725 12.410102 178.092337 11.9397551 177.485962 11.3391224 176.873681 10.7392653 176.397637 10.0370408 176.05035 9.23244898 175.703456 8.42979592 175.531387 7.57712245 175.531387 6.67597959 175.531387 5.77716327 175.70385 4.92604082 176.05035 4.11989796 176.397637 3.3172449 176.873681 2.61618367 177.485962 2.01516327 178.092337 1.41608163 178.798725.944959184 179.601581.604897959 180.404831.26522449 181.262813.0934489796 182.175131.0934489796 183.089025.0934489796 183.954881.26522449 184.771519.604897959 185.587369.944959184 186.301238 1.41608163 186.909975 2.01516327 187.518319 2.61579592 187.995938 3.3172449 188.341256 4.11989796 188.689725 4.92604082 188.861006 5.77716327 188.861006 6.67597959L186.9525 6.67597959C186.9525 6.02338776 186.827288 5.40995918 186.578044 4.83685714 186.329588 4.26453061 185.988994 3.76742857 185.559806 3.34361224 185.131013 2.92134694 184.625044 2.5874898 184.043869 2.34281633 183.463088 2.09814286 182.838994 1.97406122 182.175131 1.97406122 181.511663 1.97406122 180.893475 2.09814286 180.329231 2.34281633 179.76105 2.5874898 179.262169 2.92134694 178.832194 3.34361224 178.401431 3.76742857 178.064775 4.26453061 177.814744 4.83685714 177.564712 5.41034694 177.442256 6.02338776 177.442256 6.67597959 177.442256 7.33089796 177.565106 7.93928571 177.814744 8.49687755 178.064775 9.05679592 178.401431 9.54769388 178.832194 9.96918367 179.262169 10.391449 179.760656 10.7260816 180.329231 10.9715306 180.893475 11.2165918 181.511663 11.3391224 182.175131 11.3391224 183.089025 11.3391224 183.954881 11.5093469 184.771519 11.8501837 185.587369 12.1929592 186.301238 12.6609796 186.909975 13.2608367 187.518319 13.8614694 187.995938 14.5644694 188.341256 15.3675102 188.689725 16.1713265 188.861006 17.0243878 188.861006 17.9216531 188.861006 18.8243469 188.689331 19.6746939 188.341256 20.4777347 187.995938 21.2834898 187.518319 21.9849388 186.909975 22.5859592 186.301238 23.1838776 185.587763 23.6553878 184.771519 23.9950612 183.954881 24.335898 183.089419 24.5065102 182.175131 24.5065102 181.262813 24.5065102 180.404831 24.335898 179.601581 23.9950612 178.798725 23.6553878 178.092337 23.1838776 177.485962 22.5859592 176.873681 21.9849388 176.397637 21.2834898 176.05035 20.4777347 175.703456 19.6746939 175.531387 18.8243469 175.531387 17.9216531L177.44265 17.9216531C177.44265 18.5777347 177.5655 19.1837959 177.815137 19.742551 178.065169 20.3016939 178.401825 20.7925918 178.832587 21.2148571 179.262563 21.6382857 179.76105 21.9795102 180.329625 22.2381429 180.893869 22.4979388 181.512056 22.6255102 182.175525 22.6255102 182.839781 22.6255102 183.463481 22.4979388 184.044263 22.2381429 184.625438 21.9795102 185.131406 21.6386735 185.5602 21.2148571 185.989388 20.7925918 186.329981 20.3016939 186.578438 19.742551 186.827681 19.1837959 186.952894 18.5777347 186.952894 17.9216531 186.952894 17.2686735 186.827681 16.6618367 186.578438 16.1046327 186.329981 15.5447143 185.989388 15.0553673 185.5602 14.631551 185.131406 14.2092857 184.625438 13.8742653 184.044263 13.6292041 183.463088 13.3833673 182.839388 13.2608367 182.175131 13.2608367M2.691675 31.7102245L.91035 31.7102245.91035 34.4373061 2.69128125 34.4373061C3.56265 34.4373061 4.16863125 33.9754898 4.16863125 33.0689184 4.169025 32.1642857 3.56304375 31.7102245 2.691675 31.7102245M2.75979375 35.0937755L.91035 35.0937755.91035 37.9177959.16576875 37.9177959.16576875 31.0537551 2.75979375 31.0537551C4.032 31.0537551 4.91281875 31.8350816 4.91281875 33.0689184 4.91281875 34.3027551 4.032 35.0937755 2.75979375 35.0937755M8.85898125 37.9755714C7.810425 37.9755714 7.126875 37.7161633 6.4701 37.0693878L6.9780375 36.5684082C7.5560625 37.1360816 8.0955 37.3198776 8.8774875 37.3198776 9.8965125 37.3198776 10.5217875 36.8472041 10.5217875 36.0472653 10.5217875 35.6913061 10.4146875 35.3826531 10.1898563 35.189551 9.96463125 34.9972245 9.78744375 34.939449 9.27950625 34.863449L8.4672 34.7385918C7.91949375 34.6497959 7.4883375 34.4764694 7.18554375 34.215898 6.83195625 33.9087959 6.65555625 33.4845918 6.65555625 32.9347551 6.65555625 31.7683878 7.508025 30.9959796 8.8885125 30.9959796 9.77956875 30.9959796 10.3654688 31.2173878 10.9631813 31.7482245L10.4832 32.2220612C10.053225 31.8354694 9.59175 31.6326735 8.85898125 31.6326735 7.92894375 31.6326735 7.3906875 32.1429592 7.3906875 32.9060612 7.3906875 33.2430204 7.4883375 33.512898 7.70293125 33.6951429 7.91949375 33.8808776 8.28095625 34.0146531 8.6428125 34.0728163L9.4066875 34.1883673C10.0630688 34.2849184 10.3851563 34.4194694 10.6788938 34.6691837 11.061225 34.9886939 11.2663688 35.4598163 11.2663688 36.0290408 11.265975 37.2330204 10.3068 37.9755714 8.85898125 37.9755714"/>
    <rect width=".744" height="6.862" x="13.556" y="31.054"/>
    <path d="M19.2240563 37.9755714C18.5389313 37.9755714 17.9116875 37.7243061 17.4427313 37.2624898 16.7867438 36.6164898 16.7867438 35.9425714 16.7867438 34.4857755 16.7867438 33.0316939 16.7867438 32.3546735 17.4427313 31.7102245 17.9116875 31.2472449 18.5389313 30.9955918 19.2240563 30.9955918 20.4773625 30.9955918 21.4070063 31.7478367 21.6416813 33.0406122L20.8774125 33.0406122C20.6919563 32.2011224 20.0942438 31.6520612 19.2240563 31.6520612 18.7641563 31.6520612 18.3239438 31.8253878 18.0191813 32.1328776 17.5793625 32.5772449 17.5305375 33.0499184 17.5305375 34.4853878 17.5305375 35.9224082 17.5793625 36.3958571 18.0191813 36.8375102 18.3239438 37.1461633 18.7637625 37.3194898 19.2240563 37.3194898 20.09385 37.3194898 20.7116438 36.7704286 20.8971 35.9313265L21.6416813 35.9313265C21.4164563 37.2237143 20.4667313 37.9755714 19.2240563 37.9755714M26.3592 30.3895306L25.7142375 30.3895306 26.5753688 28.914898 27.416025 28.914898 26.3592 30.3895306 26.3592 30.3895306zM27.3959438 32.1425714C27.0935438 31.8354694 26.653725 31.652449 26.1930375 31.652449 25.7335313 31.652449 25.2925313 31.8350816 24.9897375 32.1425714 24.5483438 32.5869388 24.4995188 33.0503061 24.4995188 34.4857755 24.4995188 35.9227959 24.5483438 36.3842245 24.9897375 36.8289796 25.2925313 37.1360816 25.7335313 37.3202653 26.1930375 37.3202653 26.653725 37.3202653 27.0939375 37.1364694 27.3959438 36.8289796 27.838125 36.3846122 27.8861625 35.9227959 27.8861625 34.4857755 27.8861625 33.0503061 27.8377313 32.5869388 27.3959438 32.1425714L27.3959438 32.1425714zM27.9739688 37.2624898C27.5038313 37.7243061 26.8880063 37.9755714 26.1926437 37.9755714 25.4972812 37.9755714 24.88185 37.7243061 24.4113187 37.2624898 23.7549375 36.6164898 23.7549375 35.9425714 23.7549375 34.4857755 23.7549375 33.0316939 23.7549375 32.3546735 24.4113187 31.7102245 24.88185 31.2472449 25.4972812 30.9955918 26.1926437 30.9955918 26.8880063 30.9955918 27.5038313 31.2468571 27.9739688 31.7102245 28.6307438 32.3546735 28.6307438 33.0313061 28.6307438 34.4857755 28.6307438 35.9425714 28.6307438 36.6164898 27.9739688 37.2624898L27.9739688 37.2624898z"/>
    <polygon points="31.117 37.918 31.117 31.054 31.86 31.054 31.86 37.262 35.423 37.262 35.423 37.918"/>
    <path d="M40.4830125 32.1425714C40.1802187 31.8354694 39.738825 31.652449 39.2797125 31.652449 38.819025 31.652449 38.3788125 31.8350816 38.0748375 32.1425714 37.634625 32.5869388 37.5861937 33.0503061 37.5861937 34.4857755 37.5861937 35.9227959 37.634625 36.3842245 38.0748375 36.8289796 38.3784187 37.1360816 38.8186312 37.3202653 39.2797125 37.3202653 39.7392187 37.3202653 40.1802187 37.1364694 40.4830125 36.8289796 40.9240125 36.3846122 40.9716562 35.9227959 40.9716562 34.4857755 40.9716562 33.0503061 40.9240125 32.5869388 40.4830125 32.1425714M41.0610375 37.2624898C40.5901125 37.7243061 39.9735 37.9755714 39.2797125 37.9755714 38.58435 37.9755714 37.9673437 37.7243061 37.4983875 37.2624898 36.8420062 36.6164898 36.8420062 35.9425714 36.8420062 34.4857755 36.8420062 33.0316939 36.8420062 32.3546735 37.4983875 31.7102245 37.9673437 31.2472449 38.58435 30.9955918 39.2797125 30.9955918 39.9738937 30.9955918 40.5905062 31.2468571 41.0610375 31.7102245 41.7162375 32.3546735 41.7162375 33.0313061 41.7162375 34.4857755 41.7162375 35.9425714 41.7162375 36.6164898 41.0610375 37.2624898M48.2347687 37.184551C47.7457312 37.7053061 47.08935 37.9755714 46.3750875 37.9755714 45.6903562 37.9755714 45.0639 37.7243061 44.5933687 37.2624898 43.9381687 36.6164898 43.9381687 35.9425714 43.9381687 34.4857755 43.9381687 33.0316939 43.9381687 32.3546735 44.5933687 31.7102245 45.0639 31.2472449 45.6809062 30.9955918 46.3750875 30.9955918 47.70675 30.9955918 48.60765 31.8459388 48.8127937 33.0503061L48.0682125 33.0503061C47.872125 32.182898 47.2460625 31.652449 46.3746937 31.652449 45.9147937 31.652449 45.4737937 31.8350816 45.171 32.1425714 44.7292125 32.5869388 44.6807812 33.0503061 44.6807812 34.4857755 44.6807812 35.9227959 44.7292125 36.3962449 45.171 36.837898 45.4737937 37.146551 45.9147937 37.3198776 46.3746937 37.3198776 46.8838125 37.3198776 47.3724562 37.1174694 47.6961187 36.7304898 47.9796187 36.3962449 48.0875062 36.0189592 48.0875062 35.488898L48.0875062 34.9689184 46.3743 34.9689184 46.3743 34.3221429 48.8309062 34.3221429 48.8309062 35.4109592C48.8320875 36.2015918 48.6663187 36.7308776 48.2347687 37.184551M54.6753375 32.1425714C54.3725437 31.8354694 53.932725 31.652449 53.4720375 31.652449 53.0125312 31.652449 52.5711375 31.8350816 52.26795 32.1425714 51.82695 32.5869388 51.7785187 33.0503061 51.7785187 34.4857755 51.7785187 35.9227959 51.82695 36.3842245 52.26795 36.8289796 52.5715312 37.1360816 53.0125312 37.3202653 53.4720375 37.3202653 53.932725 37.3202653 54.3725437 37.1364694 54.6753375 36.8289796 55.1163375 36.3846122 55.1655562 35.9227959 55.1655562 34.4857755 55.1655562 33.0503061 55.1167312 32.5869388 54.6753375 32.1425714M55.2533625 37.2624898C54.7828312 37.7243061 54.1674 37.9755714 53.4720375 37.9755714 52.776675 37.9755714 52.16085 37.7243061 51.6907125 37.2624898 51.0343312 36.6164898 51.0343312 35.9425714 51.0343312 34.4857755 51.0343312 33.0316939 51.0343312 32.3546735 51.6907125 31.7102245 52.1612437 31.2472449 52.776675 30.9955918 53.4720375 30.9955918 54.1674 30.9955918 54.7828312 31.2468571 55.2533625 31.7102245 55.9097437 32.3546735 55.9097437 33.0313061 55.9097437 34.4857755 55.9101375 35.9425714 55.9101375 36.6164898 55.2533625 37.2624898M63.7398562 37.9755714C63.0539437 37.9755714 62.4286687 37.7243061 61.9585312 37.2624898 61.3033312 36.6164898 61.3033312 35.9425714 61.3033312 34.4857755 61.3033312 33.0316939 61.3033312 32.3546735 61.9585312 31.7102245 62.4290625 31.2472449 63.0539437 30.9955918 63.7398562 30.9955918 64.992375 30.9955918 65.9232 31.7478367 66.157875 33.0406122L65.3947875 33.0406122C65.2085437 32.2011224 64.611225 31.6520612 63.7398562 31.6520612 63.28035 31.6520612 62.83935 31.8253878 62.5361625 32.1328776 62.0947687 32.5772449 62.0463375 33.0499184 62.0463375 34.4853878 62.0463375 35.9224082 62.0947687 36.3958571 62.5361625 36.8375102 62.8397437 37.1461633 63.2807437 37.3194898 63.7398562 37.3194898 64.6108312 37.3194898 65.2282312 36.7704286 65.4132937 35.9313265L66.157875 35.9313265C65.9330437 37.2237143 64.9845 37.9755714 63.7398562 37.9755714"/>
    <polygon points="68.536 37.918 68.536 31.054 69.28 31.054 69.28 37.262 72.843 37.262 72.843 37.918"/>
    <path d="M74.87865,31.0537551 L75.6228375,31.0537551 L75.6228375,37.9162449 L74.87865,37.9162449 L74.87865,31.0537551 L74.87865,31.0537551 Z M75.2905125,30.3895306 L74.6443688,30.3895306 L75.5055,28.914898 L76.3473375,28.914898 L75.2905125,30.3895306 L75.2905125,30.3895306 Z"/>
    <polygon points="82.818 37.918 79.118 32.414 79.118 37.918 78.374 37.918 78.374 31.054 79.078 31.054 82.778 36.539 82.778 31.054 83.523 31.054 83.523 37.918"/>
    <rect width=".744" height="6.862" x="86.273" y="31.054"/>
    <path d="M91.9402312 37.9755714C91.2551062 37.9755714 90.6278625 37.7243061 90.1589062 37.2624898 89.5029187 36.6164898 89.5029187 35.9425714 89.5029187 34.4857755 89.5029187 33.0316939 89.5029187 32.3546735 90.1589062 31.7102245 90.6278625 31.2472449 91.2551062 30.9955918 91.9402312 30.9955918 93.19275 30.9955918 94.1227875 31.7478367 94.3578562 33.0406122L93.5935875 33.0406122C93.408525 32.2011224 92.8116 31.6520612 91.9402312 31.6520612 91.4811187 31.6520612 91.039725 31.8253878 90.7369312 32.1328776 90.2959312 32.5772449 90.2467125 33.0499184 90.2467125 34.4853878 90.2467125 35.9224082 90.2959312 36.3958571 90.7369312 36.8375102 91.039725 37.1461633 91.4815125 37.3194898 91.9402312 37.3194898 92.8112062 37.3194898 93.4278187 36.7704286 93.6136687 35.9313265L94.3578562 35.9313265C94.1322375 37.2237143 93.1829062 37.9755714 91.9402312 37.9755714M100.114088 32.1425714C99.8089313 31.8354694 99.3699 31.652449 98.9092125 31.652449 98.4489188 31.652449 98.010675 31.8350816 97.7047313 32.1425714 97.2657 32.5869388 97.2156938 33.0503061 97.2156938 34.4857755 97.2156938 35.9227959 97.2657 36.3842245 97.7047313 36.8289796 98.0102813 37.1360816 98.4489188 37.3202653 98.9092125 37.3202653 99.3699 37.3202653 99.8085375 37.1364694 100.114088 36.8289796 100.553513 36.3846122 100.602731 35.9227959 100.602731 34.4857755 100.602731 33.0503061 100.553513 32.5869388 100.114088 32.1425714M100.690931 37.2624898C100.222762 37.7243061 99.6041812 37.9755714 98.9096063 37.9755714 98.2150313 37.9755714 97.5976313 37.7243061 97.1271 37.2624898 96.4722938 36.6164898 96.4722938 35.9425714 96.4722938 34.4857755 96.4722938 33.0316939 96.4722938 32.3546735 97.1271 31.7102245 97.5976313 31.2472449 98.215425 30.9955918 98.9096063 30.9955918 99.604575 30.9955918 100.222762 31.2468571 100.690931 31.7102245 101.346525 32.3546735 101.346525 33.0313061 101.346525 34.4857755 101.346525 35.9425714 101.346525 36.6164898 100.690931 37.2624898M108.600975 36.2686735C107.718188 36.2686735 107.003531 35.566449 107.003531 34.6990408 107.003531 33.8304694 107.717794 33.1255306 108.600975 33.1255306 109.481006 33.1255306 110.195663 33.8304694 110.195663 34.6990408 110.195663 35.5668367 109.4814 36.2686735 108.600975 36.2686735M118.642388 31.7102245L116.862244 31.7102245 116.862244 34.4373061 118.642388 34.4373061C119.51415 34.4373061 120.120525 33.9754898 120.120525 33.0689184 120.120525 32.1642857 119.51415 31.7102245 118.642388 31.7102245M118.7109 35.0937755L116.862244 35.0937755 116.862244 37.9177959 116.116875 37.9177959 116.116875 31.0537551 118.7109 31.0537551C119.982713 31.0537551 120.863925 31.8350816 120.863925 33.0689184 120.863925 34.3027551 119.983106 35.0937755 118.7109 35.0937755M124.808119 37.9755714C123.761531 37.9755714 123.0768 37.7161633 122.421206 37.0693878L122.929931 36.5684082C123.507956 37.1360816 124.046213 37.3198776 124.828988 37.3198776 125.847225 37.3198776 126.473288 36.8472041 126.473288 36.0472653 126.473288 35.6913061 126.366188 35.3826531 126.140175 35.189551 125.915738 34.9972245 125.738156 34.939449 125.229825 34.863449L124.417125 34.7385918C123.869025 34.6497959 123.439838 34.4764694 123.135469 34.215898 122.782275 33.9087959 122.606269 33.4845918 122.606269 32.9347551 122.606269 31.7683878 123.459131 30.9959796 124.838044 30.9959796 125.7291 30.9959796 126.316181 31.2173878 126.913894 31.7482245L126.433913 32.2220612C126.004331 31.8354694 125.542856 31.6326735 124.807725 31.6326735 123.878081 31.6326735 123.341006 32.1429592 123.341006 32.9060612 123.341006 33.2430204 123.43905 33.512898 123.652856 33.6951429 123.868631 33.8808776 124.230881 34.0146531 124.592738 34.0728163L125.3574 34.1883673C126.013388 34.2849184 126.334688 34.4194694 126.628031 34.6691837 127.011544 34.9886939 127.217475 35.4598163 127.217475 36.0290408 127.217869 37.2330204 126.257906 37.9755714 124.808119 37.9755714"/>
    <rect width=".744" height="6.862" x="129.508" y="31.054"/>
    <path d="M135.175556 37.9755714C134.490431 37.9755714 133.863975 37.7243061 133.392656 37.2624898 132.737062 36.6164898 132.737062 35.9425714 132.737062 34.4857755 132.737062 33.0316939 132.737062 32.3546735 133.392656 31.7102245 133.863975 31.2472449 134.490431 30.9955918 135.175556 30.9955918 136.427681 30.9955918 137.357325 31.7478367 137.592394 33.0406122L136.830094 33.0406122C136.643456 32.2011224 136.046137 31.6520612 135.175556 31.6520612 134.714475 31.6520612 134.275444 31.8253878 133.970681 32.1328776 133.530862 32.5772449 133.482431 33.0499184 133.482431 34.4853878 133.482431 35.9224082 133.530862 36.3958571 133.970681 36.8375102 134.27505 37.1461633 134.714475 37.3194898 135.175556 37.3194898 136.046137 37.3194898 136.661962 36.7704286 136.847419 35.9313265L137.592394 35.9313265C137.367169 37.2237143 136.418625 37.9755714 135.175556 37.9755714M143.347837 32.1425714C143.044256 31.8354694 142.604044 31.652449 142.144537 31.652449 141.683062 31.652449 141.244031 31.8350816 140.939269 32.1425714 140.500631 32.5869388 140.451019 33.0503061 140.451019 34.4857755 140.451019 35.9227959 140.500631 36.3842245 140.939269 36.8289796 141.243637 37.1360816 141.683062 37.3202653 142.144537 37.3202653 142.604044 37.3202653 143.044256 37.1364694 143.347837 36.8289796 143.787656 36.3846122 143.838056 35.9227959 143.838056 34.4857755 143.838056 33.0503061 143.787656 32.5869388 143.347837 32.1425714M143.925862 37.2624898C143.455725 37.7243061 142.839112 37.9755714 142.144537 37.9755714 141.4476 37.9755714 140.832562 37.7243061 140.362819 37.2624898 139.706044 36.6164898 139.706044 35.9425714 139.706044 34.4857755 139.706044 33.0316939 139.706044 32.3546735 140.362819 31.7102245 140.832562 31.2472449 141.447994 30.9955918 142.144537 30.9955918 142.839506 30.9955918 143.455725 31.2468571 143.925862 31.7102245 144.580669 32.3546735 144.580669 33.0313061 144.580669 34.4857755 144.580669 35.9425714 144.580669 36.6164898 143.925862 37.2624898"/>
    <polygon points="148.918 31.71 148.918 37.918 148.174 37.918 148.174 31.71 146.158 31.71 146.158 31.054 150.934 31.054 150.934 31.71"/>
    <polygon points="152.97 37.918 152.97 31.054 157.296 31.054 157.296 31.71 153.714 31.71 153.714 34.13 156.768 34.13 156.768 34.784 153.714 34.784 153.714 37.262 157.296 37.262 157.296 37.918"/>
    <path d="M162.180506 31.7102245L160.321612 31.7102245 160.321612 34.2263673 162.180506 34.2263673C162.992419 34.2263673 163.569262 33.8106939 163.569262 32.9723673 163.569262 32.1332653 162.992025 31.7102245 162.180506 31.7102245L162.180506 31.7102245zM163.580287 37.9177959L161.993869 34.8712041 160.321612 34.8712041 160.321612 37.9177959 159.575456 37.9177959 159.575456 31.0537551 162.248625 31.0537551C163.46295 31.0537551 164.31345 31.7773061 164.31345 32.9642245 164.31345 33.9657959 163.697625 34.621102 162.797906 34.8052857L164.451262 37.9177959 163.580287 37.9177959 163.580287 37.9177959zM168.728962 32.1065102L167.417775 35.7304694 170.020856 35.7304694 168.728962 32.1065102 168.728962 32.1065102zM170.793787 37.9177959L170.237419 36.3671633 167.19255 36.3671633 166.635787 37.9177959 165.841987 37.9177959 168.407269 31.0537551 169.031362 31.0537551 171.587587 37.9177959 170.793787 37.9177959 170.793787 37.9177959zM175.973963 31.7102245L174.191063 31.7102245 174.191063 34.4373061 175.973963 34.4373061C176.842969 34.4373061 177.450919 33.9754898 177.450919 33.0689184 177.450919 32.1642857 176.842969 31.7102245 175.973963 31.7102245M176.040506 35.0937755L174.191063 35.0937755 174.191063 37.9177959 173.446088 37.9177959 173.446088 31.0537551 176.040506 31.0537551C177.313894 31.0537551 178.194319 31.8350816 178.194319 33.0689184 178.194319 34.3027551 177.313894 35.0937755 176.040506 35.0937755"/>
    <rect width=".743" height="6.862" x="180.348" y="31.054"/>
    <path d="M185.839762,32.1065102 L184.527787,35.7304694 L187.130475,35.7304694 L185.839762,32.1065102 L185.839762,32.1065102 Z M187.904587,37.9177959 L187.346644,36.3671633 L184.302956,36.3671633 L183.745012,37.9177959 L182.952787,37.9177959 L185.516494,31.0537551 L186.141769,31.0537551 L188.696812,37.9177959 L187.904587,37.9177959 L187.904587,37.9177959 Z"/>
  </g>
</svg>
