<svg xmlns="http://www.w3.org/2000/svg" width="79" height="80" viewBox="0 0 79 80">
  <path fill="#008FBE" fill-rule="evenodd" d="M73.8959437,41.516 C72.9899437,40.427 71.6579437,39.802 70.2419437,39.802 C69.1329437,39.802 68.0489437,40.193 67.1949437,40.906 L44.7379437,59.628 L44.7909437,10.765 C44.7909437,8.145 42.6559437,6.005 40.0289437,6 C37.4139437,6 35.2729437,8.131 35.2689437,10.753 L35.2159437,59.589 L12.8049437,40.905 C11.9479437,40.194 10.8659437,39.803 9.75794371,39.803 C8.33994371,39.803 7.01194371,40.428 6.10594371,41.515 C5.28994371,42.489 4.90494371,43.722 5.01994371,44.993 C5.13294371,46.257 5.73494371,47.406 6.71294371,48.217 L36.9529437,73.431 C37.8069437,74.142 38.8889437,74.532 39.9999437,74.532 C41.1149437,74.532 42.1989437,74.139 43.0449437,73.428 L73.2829437,48.218 C74.2629437,47.406 74.8629437,46.258 74.9779437,44.995 C75.0979437,43.725 74.7129437,42.489 73.8959437,41.516 L73.8959437,41.516 Z" transform="rotate(90 40 40.266)"/>
</svg>
